#!OML:ASF I:\Actors\actors\Patient Classification 2\Patient 1\Session 1\actor1.ASF
:FULLY-SPECIFIED
:DEGREES
467
root 0.160252 18.7297 5.11556 2.08254 3.01251 2.12711
lowerback 15.498 -3.26641 12.1358
upperback 5.92703 -2.21974 7.14739
thorax -2.4559 -1.03116 1.1894
lowerneck -4.62842 -9.866 -10.7295
upperneck 35.7093 -12.544 -0.25628
head 13.5853 -6.81963 0.120635
rclavicle -2.38542e-014 3.81667e-014
rhumerus -34.7338 -4.07918 -42.4724
rradius 44.4832
rwrist -11.8153
rhand 1.36413 -52.8257
rfingers 7.12502
rthumb 26.8963 -440.932
lclavicle -2.38542e-014 3.81667e-014
lhumerus -51.9257 -54.5397 121.857
lradius 96.505
lwrist 27.8364
lhand 18.4747 -6.46779
lfingers 7.12502
lthumb 43.1116 17.7386
rfemur 0 0 0
rtibia 0
rfoot 0 0
rtoes 0
lfemur -9.96176 2.54045 -18.6252
ltibia 23.5631
lfoot -16.8018 1.43575
ltoes -55.0944
468
root 0.186464 18.7289 5.12416 2.13143 2.98793 2.21107
lowerback 15.3714 -3.47826 12.2833
upperback 5.93823 -2.50016 7.09286
thorax -2.40073 -1.1642 1.09715
lowerneck -4.58708 -9.84209 -10.7232
upperneck 35.8768 -12.4022 -0.630519
head 13.614 -6.80454 -0.00742158
rclavicle 4.45278e-014 6.36111e-015
rhumerus -34.6009 -6.09026 -39.1814
rradius 44.5247
rwrist -10.8615
rhand -1.54184 -52.6305
rfingers 7.12502
rthumb 24.1128 -441.135
lclavicle 4.45278e-014 6.36111e-015
lhumerus -51.7717 -54.2976 121.41
lradius 96.6827
lwrist 27.8279
lhand 18.4935 -6.36379
lfingers 7.12502
lthumb 43.1292 17.8363
rfemur 0 0 0
rtibia 0
rfoot 0 0
rtoes 0
lfemur -10.0073 2.76354 -18.8007
ltibia 23.6088
lfoot -16.7792 1.26044
ltoes -55.1217
469
root 0.211599 18.7271 5.13104 2.17662 2.87814 2.34344
lowerback 15.2208 -3.64764 12.432
upperback 5.99428 -2.73926 6.95758
thorax -2.28696 -1.27274 0.906659
lowerneck -4.52264 -9.82746 -10.5976
upperneck 35.9475 -12.3147 -0.937799
head 13.591 -6.79051 -0.130616
rclavicle 4.13472e-014 7.63333e-014
rhumerus -34.6121 -8.38948 -36.1784
rradius 44.7796
rwrist -9.88734
rhand -5.32114 -52.6215
rfingers 7.12502
rthumb 20.4848 -441.561
lclavicle 4.13472e-014 7.63333e-014
lhumerus -51.7297 -54.1365 120.954
lradius 96.8612
lwrist 27.7501
lhand 18.5472 -6.43635
lfingers 7.12502
lthumb 43.1793 17.7459
rfemur 0 0 0
rtibia 0
rfoot 0 0
rtoes 0
lfemur -10.0247 2.96843 -19.0275
ltibia 23.6303
lfoot -16.7941 1.16311
ltoes -55.0968
470
root 0.237719 18.7244 5.13747 2.2221 2.69668 2.5609
lowerback 15.0609 -3.78734 12.5944
upperback 6.0724 -2.94657 6.71746
thorax -2.1502 -1.36256 0.588894
lowerneck -4.32754 -9.82733 -10.5308
upperneck 35.8831 -12.3333 -0.986498
head 13.5115 -6.80076 -0.147483
rclavicle -6.36111e-014 -1.27222e-013
rhumerus -34.6425 -10.9448 -33.5475
rradius 44.9508
rwrist -8.71946
rhand -9.60287 -51.5887
rfingers 7.12502
rthumb 16.366 -440.918
lclavicle -6.36111e-014 -1.27222e-013
lhumerus -51.8025 -54.0565 120.523
lradius 97.0425
lwrist 27.6386
lhand 18.5532 -6.54436
lfingers 7.12502
lthumb 43.185 17.6359
rfemur 0 0 0
rtibia 0
rfoot 0 0
rtoes 0
lfemur -10.0148 3.21306 -19.3419
ltibia 23.629
lfoot -16.8296 1.01381
ltoes -54.9357
471
root 0.26319 18.723 5.14429 2.30726 2.46372 2.71079
lowerback 14.8698 -3.94294 12.7945
upperback 6.14013 -3.17361 6.49346
thorax -2.01272 -1.46167 0.270262
lowerneck -4.07828 -9.80004 -10.6527
upperneck 35.8001 -12.3511 -0.843058
head 13.4458 -6.81297 -0.0584465
rclavicle 2.38542e-014 4.77083e-014
rhumerus -34.443 -13.2378 -31.3464
rradius 44.9411
rwrist -7.54201
rhand -14.3447 -49.8267
rfingers 7.12502
rthumb 11.7968 -439.474
lclavicle 2.38542e-014 4.77083e-014
lhumerus -51.8467 -53.8847 120.088
lradius 97.2148
lwrist 27.5831
lhand 18.3616 -6.54129
lfingers 7.12502
lthumb 43.0059 17.7026
rfemur 0 0 0
rtibia 0
rfoot 0 0
rtoes 0
lfemur -10.0421 3.5269 -19.5764
ltibia 23.6051
lfoot -16.8414 0.81554
ltoes -54.8415
472
root 0.286176 18.7226 5.14996 2.39262 2.15491 2.78811
lowerback 14.7421 -4.12494 12.8717
upperback 6.18535 -3.4343 6.38787
thorax -1.92742 -1.58328 0.154629
lowerneck -3.95227 -9.71971 -10.8607
upperneck 35.883 -12.2053 -0.905049
head 13.464 -6.78865 -0.0261282
rclavicle 7.95139e-015 5.725e-014
rhumerus -34.4064 -15.1045 -29.7368
rradius 45.4347
rwrist -5.6621
rhand -18.0907 -50.5162
rfingers 7.12502
rthumb 8.18283 -440.338
lclavicle 7.95139e-015 5.725e-014
lhumerus -51.8227 -53.4231 119.703
lradius 97.3818
lwrist 27.515
lhand 18.165 -6.44517
lfingers 7.12502
lthumb 42.8219 17.8634
rfemur 0 0 0
rtibia 0
rfoot 0 0
rtoes 0
lfemur -10.0641 3.87537 -19.7249
ltibia 23.5691
lfoot -16.8623 0.673522
ltoes -54.7469
473
root 0.306236 18.7213 5.15428 2.43959 1.76381 2.89813
lowerback 14.7503 -4.27182 12.8151
upperback 6.22308 -3.64154 6.28954
thorax -1.91343 -1.68403 0.117176
lowerneck -3.89381 -9.66581 -10.9191
upperneck 36.0098 -12.0449 -1.18506
head 13.4845 -6.76434 -0.103991
rclavicle -2.38542e-014 -2.54444e-014
rhumerus -33.4288 -15.592 -28.5442
rradius 45.2914
rwrist -3.97203
rhand -20.4744 -54.208
rfingers 7.12502
rthumb 5.88179 -444.106
lclavicle -2.38542e-014 -2.54444e-014
lhumerus -51.8306 -52.9485 119.416
lradius 97.5391
lwrist 27.5134
lhand 18.1368 -6.24279
lfingers 7.12502
lthumb 42.7956 18.075
rfemur 0 0 0
rtibia 0
rfoot 0 0
rtoes 0
lfemur -10.0317 4.20747 -19.9037
ltibia 23.5337
lfoot -16.9162 0.619613
ltoes -54.5374
474
root 0.323644 18.7205 5.15653 2.51354 1.30731 2.99405
lowerback 14.805 -4.36786 12.7548
upperback 6.26108 -3.77655 6.13673
thorax -1.92145 -1.74973 0.0135449
lowerneck -3.77789 -9.66042 -10.9705
upperneck 36.0228 -12.0366 -1.23211
head 13.4673 -6.77798 -0.107353
rclavicle -6.52014e-014 3.81667e-014
rhumerus -33.3673 -16.7613 -28.0401
rradius 45.757
rwrist -1.68338
rhand -25.492 -54.0528
rfingers 7.12502
rthumb 1.03637 -444.03
lclavicle -6.52014e-014 3.81667e-014
lhumerus -51.8356 -52.6442 119.137
lradius 97.6682
lwrist 27.5535
lhand 18.1331 -6.14063
lfingers 7.12502
lthumb 42.7921 18.1784
rfemur 0 0 0
rtibia 0
rfoot 0 0
rtoes 0
lfemur -10.0331 4.49606 -20.0706
ltibia 23.4953
lfoot -16.9836 0.673712
ltoes -54.3729
